<svg id="Calque_1" data-name="Calque 1" xmlns="http://www.w3.org/2000/svg" viewBox="0 0 874.54 237.13"><defs><style>.cls-1{fill:#0395da;}.cls-2{fill:#040404;}.cls-3{fill:#fdfdfd;}</style></defs><path class="cls-1" d="M445.21,53.94c-9.86,1.5-19.85,1.46-29.76,2.44-13.27,1.3-26.57,2.29-39.83,3.58q-18.58,1.8-37.13,3.95c-10.88,1.26-21.72,2.82-32.61,4-2.91.32-3.51,1.55-3.5,4.21.09,23.54.05,47.08.05,70.62,0,5.23-.15,10.46.06,15.69.12,2.84-.6,3.93-3.67,3.83-6.61-.23-13.24-.23-19.85,0-2.91.1-3.47-.87-3.46-3.58.1-27.28.06-54.55.06-81.83V72.34c-8.37,1.27-16.52,2.41-24.65,3.74-23.42,3.85-46.81,7.83-70.07,12.5-23,4.63-45.95,9.54-68.93,14.25-2.58.53-2.25,1.71-1.55,3.57q9.9,26.35,19.68,52.75c1.49,4,1.49,4-2.77,4-7.37,0-14.74-.1-22.1.05-2.38.06-3.46-.65-4.23-3-5.14-15.31-10.44-30.57-15.69-45.84-1.67-4.85-1.83-4.91-6.93-3.66L48,118.19a3.81,3.81,0,0,1-3.29-.22c11.47-3.19,22.53-6.4,33.68-9.3,3.35-.87,4.26-2,3.14-5.48C76,86,70.85,68.8,65.29,50.69,62.53,59.68,60,67.85,57.51,76Q51.72,94.72,45.9,113.4c-.45,1.45-.85,2.78-2.59,3.29-9.4,2.78-18.77,5.62-28.17,8.42-.31.09-.7-.09-1.47-.2,1.92-5.23,3.78-10.32,5.66-15.4Q38.7,57.25,58,5c1-2.69,2.15-3.64,5-3.59,8.27.15,8.26,0,11.1,7.65q16.52,44.39,33,88.77c.91,2.46,1.9,2.66,4.3,2,41.35-10.7,83-20,124.91-28.33,12.07-2.4,24.16-4.65,36.3-6.64,2.76-.45,3-1.52,3-3.81-.07-18,.09-36.11-.14-54.17-.05-3.76,1.07-4.51,4.55-4.35,6.23.3,12.49.23,18.72,0,2.87-.09,3.8.61,3.77,3.65-.16,16.43-.08,32.87-.07,49.31,0,4.45,0,4.39,4.3,3.67q28-4.66,56.11-8.06c19-2.27,38.06-4.53,57.12-6.56,8.41-.9,16.88-1.24,25.32-1.84A50.21,50.21,0,0,1,445.21,53.94Z"/><path class="cls-1" d="M332.3,66.32l32.82-3.76c1-.12,2-.38,2.9.25,10.11,7.08,21.86,11.48,31.61,19.16,21.41,16.86,23.79,50.65,4.81,68.72-9.28,8.82-20.69,12.62-33.2,13.69-15.09,1.29-29.25-1.52-42.34-9.37-2.27-1.35-2.76-2.53-1.7-5,2.71-6.4,5.22-12.9,7.57-19.44,1-2.77,2-2.61,4.09-1.1,9.07,6.4,19,10.37,30.35,9.88a42.24,42.24,0,0,0,7.78-1c10.64-2.45,15.55-10.68,12.9-21.45A27.92,27.92,0,0,0,380.47,102c-5.94-5-12.65-8.84-19.46-12.51-7-3.79-13.95-7.73-20.18-12.77A37.19,37.19,0,0,1,332.3,66.32Z"/><path class="cls-2" d="M445.21,53.94a50.21,50.21,0,0,0,.08-11.23l0-21.64c0-1.38-.22-2.68,2-2.69,14.36-.1,28.7-.09,42.38,5.21A65.75,65.75,0,0,1,511.2,36.91l-21.75.88a7.84,7.84,0,0,1-3.51-1.15,58.73,58.73,0,0,0-24-4.93c-2.06,0-2.94.45-2.75,2.66s.1,4.72.13,7.08v12q0,43.88-.07,87.76c0,1.14-.45,2.59,1.69,2.46,15-.88,29.08-4.56,40.3-15.3,18.64-17.82,22.36-48.63,8.71-70.7-.76-1.25-1.57-2.46-2.87-4.47,5.65,0,10.68,0,15.7,0,1.88,0,2,1.58,2.63,2.72,19.86,38.65-.8,85.62-42.85,97.65C471,156.86,459.23,157,447.37,157c-1.66,0-2.16-.64-2.13-2.21.07-3.61,0-7.22,0-10.83q.06-44.43.12-88.88A7,7,0,0,0,445.21,53.94Z"/><path class="cls-1" d="M259.05,162.2c-9.19,0-17.91-.07-26.63.05-2.32,0-2.91-1.53-3.76-3q-14.79-25.49-29.55-51c-.67-1.15-1.41-2.26-2.41-3.87l-13.48,22.72c-6.41,10.8-12.86,21.58-19.16,32.44a4.68,4.68,0,0,1-4.71,2.71c-8-.13-16,0-23.92,0-.71-1.26.28-2,.73-2.73q19.32-32.79,38.63-65.57a6.21,6.21,0,0,1,4.86-3.36c10.64-1.81,21.24-3.84,31.82-5.93a2.62,2.62,0,0,1,3.3,1.44q21.89,37.34,43.8,74.64A9.42,9.42,0,0,1,259.05,162.2Z"/><path class="cls-1" d="M138.32,2.72c8.77,0,17,.1,25.24-.06,2.3,0,3,1.38,3.84,2.87Q181,28.69,194.65,51.85c.74,1.27,1.52,2.53,2.53,4.22,5.81-9.78,11.39-19.15,16.95-28.53,4.38-7.38,8.84-14.72,13.06-22.19a4.84,4.84,0,0,1,5-2.8c8,.15,16.12.06,24.77.06-5.85,9.9-11.38,19.3-16.94,28.69C232.12,44.68,224.15,58,216.29,71.45a6.18,6.18,0,0,1-4.5,3.32c-8.76,1.75-17.51,3.59-26.21,5.64-2.19.52-2.75-.25-3.72-1.93q-20.58-36-41.34-71.8C139.85,5.52,139.21,4.33,138.32,2.72Z"/><path class="cls-2" d="M728.61,133.08c-9.28-3.61-14.59-10.2-15.67-19.79-1.24-11,2.81-19.8,12.06-25.94a28.64,28.64,0,0,1,20.65-4.84c6.36,1,12.36-.22,18.49-1.07a14.66,14.66,0,0,1,4.76-.36c-1.11,7.61-1.11,7.61-6.74,8.81,7.14,6.91,9.65,15.25,8,24.73-1.74,9.82-8.37,15.32-17.41,18.44.27.37.37.68.55.73,9.85,2.8,16.56,8.86,18.11,19.14C773,164,769,173.43,760,180.12c-12.41,9.29-30.91,8.32-44.44-5.5-.92-.93-.93-1.6-.08-2.45a1.37,1.37,0,0,0,.22-.3c1.85-2.5,3.2-6.15,5.67-7.21,3.05-1.31,4.43,3.14,6.77,4.79,9.13,6.42,18.76,6.6,25.64,0,5.84-5.58,7-13,3.12-19.63A17.31,17.31,0,0,0,737,142a22.87,22.87,0,0,0-9.86,5.83c-1.23,1.24-2,1.46-3.12-.12a40.65,40.65,0,0,0-2.92-3.4c-3.95-4.57-4-4.63,1.26-7.91C724.28,135.12,726.46,134.19,728.61,133.08Zm13-7.93c9.54,0,17.19-7.06,17.23-15.87,0-9-7.42-16.07-17-16.12s-17.55,7.36-17.48,16.16C724.45,118.33,731.89,125.17,741.6,125.15Z"/><path class="cls-1" d="M459.36,53.44v-12c36.7-2.68,73.45-3.54,110.24-3.3,22.69.15,45.35,1.11,68,2.67,15.64,1.07,31.22,2.9,46.83,4.42a19.09,19.09,0,0,1,2.87.67c-2.91,3.21-5.79,6.62-8.95,9.76-2,2-4.83.83-7.17.62-14.14-1.26-28.31-2.06-42.48-3C594.56,51.18,560.4,51,526.24,51.22,503.93,51.37,481.64,52.36,459.36,53.44Z"/><path class="cls-2" d="M605.62,140.33c.46,2.25.83,3.94,1.15,5.65,1.28,6.75,1.27,6.75-5.35,9.39-20.34,8.12-39.39,2.76-50.3-14.16a38.21,38.21,0,0,1,7.69-49.87c14.62-12.22,35.44-12.22,48.9,0a49.28,49.28,0,0,1,7.06,8.63c1.69,2.44.92,3.38-1.48,4.65-16.48,8.7-32.81,17.68-49.32,26.31-3.27,1.71-3.24,3-1.25,5.59,7.27,9.62,18.92,13.25,31,9.4A53.2,53.2,0,0,0,605.62,140.33ZM598.41,99.5C591.72,92,580,91.2,569.85,97.11c-8.75,5.08-15.31,16.77-12.23,24.89Z"/><path class="cls-1" d="M355.1,50.22c-8.51,1.23-17,2.41-25.46,3.74-1.76.28-2.15-.37-2.41-1.85-5.12-28.8,14.09-49.42,38.3-51.67C377.4-.65,389.21.12,400.47,4.62c10.35,4.13,10.41,4.35,7,14.56-1.45,4.37-3,8.69-4.3,13.11-.68,2.39-1.33,2.68-3.41,1.17a49.94,49.94,0,0,0-21.57-8.81C359.68,21.59,349.16,34.75,355.1,50.22Z"/><path class="cls-2" d="M800.21,83.36v7.28c1.24.5,1.6-.42,2.06-.85,9.15-8.51,19.77-9.3,31-5.52,9.81,3.3,15.67,12.36,15.82,24.27.19,14.94,0,29.87.1,44.81,0,1.91-.68,2.49-2.39,2.91-10.18,2.51-10.17,2.55-10.17-7.72,0-10.95,0-21.9,0-32.85a38.49,38.49,0,0,0-.44-5.57c-1.44-9.41-6-14.4-14.09-15.4s-16,3.94-19.24,11.9a27.42,27.42,0,0,0-1.9,10.55c0,11.82-.09,23.64,0,35.47,0,2.47-.67,3.58-3.15,3.82a37.25,37.25,0,0,0-7,1.24c-2.31.69-2.47-.3-2.46-2.13q0-33.79,0-67.59c0-1.62.36-2.43,2.15-2.69C793.62,84.85,796.65,84.09,800.21,83.36Z"/><path class="cls-2" d="M654.81,136.77c.24-3.61-1.45-6.44-4.6-8.55a55.28,55.28,0,0,0-9.39-4.54q-3.26-1.38-6.41-3c-12.81-6.53-12-20.25-6.92-28.07C634.37,82,647.08,79,657,85.93c.61.43,1.22.88,1.8,1.34,7.08,5.62,7.07,7.9.17,13.69-1.12.93-1.57.61-2.35-.27a45.66,45.66,0,0,0-4.89-5.13c-4.53-3.76-10.55-3-13.82,1.49-3.49,4.84-2.36,9.9,2.92,13.35,3.28,2.14,7,3.07,10.62,4.49,14.51,5.74,20.28,19.25,13.3,31.81-7.67,13.81-24.45,17.83-38.67,3.59-1-1-1-1.71,0-2.73a67.84,67.84,0,0,0,4.85-5.18c1-1.2,1.74-1.32,2.93-.1a18.33,18.33,0,0,0,7.24,4.48C648.42,149.32,654.84,144.74,654.81,136.77Z"/><path class="cls-1" d="M874.54,93.26c-6.76-1.94-13.5-3.94-20.29-5.8-27.42-7.53-55.19-13.5-83.2-18.39-19.72-3.45-39.51-6.48-59.4-8.58-6.48-.68-11.27-2.77-15.14-7.74-1.73-2.23-3.81-4.19-6.11-6.68C754.11,54.19,815.68,68.35,874.54,93.26Z"/><path class="cls-1" d="M43,121.13c-4.56,13.89-8.9,27.05-13.17,40.25-.49,1.52-1.4,1.8-2.78,1.79-8.34,0-16.69-.07-25,0-2.36,0-2.33-.8-1.64-2.65C4.08,150.8,7.63,141,11.26,131.25c.37-1,.66-2,2.05-2.4C23,126.39,32.65,123.84,43,121.13Z"/><path class="cls-1" d="M684,121.9c0-11.07.07-22.13-.06-33.2,0-2.35.71-3.43,3-3.58a25.61,25.61,0,0,0,2.58-.41c7.09-1.23,7.09-1.24,7.09,6.12,0,20.51,0,41,.07,61.55,0,2.63-.63,3.86-3.3,4.07a22.65,22.65,0,0,0-5.87,1c-3.41,1.24-3.59-.41-3.56-3.11C684.09,143.54,684,132.72,684,121.9Z"/><path class="cls-2" d="M25,190l19,38.5c-2.86,1.43-4.49.65-5.51-2.12a51.72,51.72,0,0,0-2.64-5.33c-4.72-9.43-4.72-9.39-15.38-8.65a2.77,2.77,0,0,0-2.71,1.95c-1.83,4.06-4,8-5.69,12.1-1.08,2.67-2.51,3.41-5.48,2.1C12.6,215.94,18.64,203.28,25,190Zm-4.48,18.69c2.64,0,4.62-.1,6.58,0,2.41.15,2.41-.79,1.49-2.56-1.25-2.4-2.33-4.87-3.67-7.73C23.4,202,22.06,205.06,20.49,208.72Z"/><path class="cls-2" d="M183.06,210c0,5.47,0,10.95,0,16.42,0,.9.51,2.22-.83,2.53-1,.22-2.28,1.15-2.85-1-.4-1.45-1.37,0-2,.34-4.7,2.53-9,1.79-12.34-2.19a10.85,10.85,0,0,1,0-13.76,9.25,9.25,0,0,1,12-2.38c2.7,1.64,2.5.17,2.5-1.65,0-4.85,0-9.7,0-14.55,0-1.64,0-3,2.21-2.93s1.27,1.79,1.29,2.75C183.11,199,183.06,204.49,183.06,210Zm-4,9.21c0-4-3-7.26-6.53-7.19s-6.43,3.53-6.34,7.43,3,6.93,6.42,7C176.22,226.44,179.08,223.24,179.06,219.17Z"/><path class="cls-2" d="M552.93,211c2.51-.93,4.2-2.21,6.43-2.27,6.09-.17,10.94,4,11.3,9.9a10.74,10.74,0,0,1-9.34,11.16c-5.87.66-11.5-3.44-11.75-9.35-.39-9.17-.1-18.37-.19-27.55,0-1.84,1.1-2,2.39-2,1.75-.07,1.13,1.32,1.13,2.14C553,198.76,552.93,204.58,552.93,211Zm7.23,15.44A7.17,7.17,0,0,0,567,219a7.05,7.05,0,0,0-7.18-7,7.21,7.21,0,0,0,.31,14.41Z"/><path class="cls-2" d="M765.94,219.42c0-2.61,0-5.22,0-7.83,0-1-.06-2.4,1.27-2.16,3.67.64,7.75-2.7,11.06,1.15.88,1,1.46.23,2.13-.34a6.66,6.66,0,0,1,7.66-.8c2.7,1.3,3.41,3.76,3.39,6.55,0,3.35,0,6.71,0,10.06,0,1.44.43,3.09-2,3.11-3,0-1.32-2.17-1.43-3.2-.28-2.71-.07-5.46-.1-8.2,0-2.56-.1-5.42-3.56-5.42-3.29,0-3.8,2.62-3.79,5.31,0,3.11-.09,6.22,0,9.32.07,1.68-.65,2.07-2.12,2.22-2,.21-1.53-1.14-1.54-2.15,0-3.36,0-6.71,0-10.07,0-2.25-.46-4.42-3.21-4.64-2.93-.24-3.94,2-4.12,4.3a88.64,88.64,0,0,0-.1,10.05c.06,1.73-.45,2.5-2.21,2.55-2,.05-1.27-1.46-1.31-2.35C765.88,224.4,765.94,221.91,765.94,219.42Z"/><path class="cls-2" d="M266.19,219.46c0-2.61,0-5.22,0-7.83,0-1-.05-2.49,1.21-2.21,3.57.8,7.55-2.72,10.75,1,1,1.19,1.59.47,2.39-.2a6.72,6.72,0,0,1,7.68-.75c2.68,1.3,3.35,3.74,3.25,6.57-.12,3.23,0,6.47-.05,9.69,0,1.42.83,3.53-1.93,3.45-2.93-.08-1.36-2.35-1.49-3.55-.26-2.46,0-5-.09-7.45s.32-5.83-3.46-5.8-3.76,3.22-3.75,6-.11,5.73,0,8.58c.11,2-1.14,2.18-2.57,2.24-1.78.08-1.05-1.33-1.07-2.08-.08-3.23,0-6.46,0-9.69,0-2.5-.32-5.11-3.51-5.1s-3.83,2.58-3.84,5.28c0,3-.07,6,0,8.94.06,1.62-.24,2.61-2.12,2.64-2.32,0-1.33-1.69-1.38-2.67C266.1,224.18,266.19,221.82,266.19,219.46Z"/><path class="cls-2" d="M297.3,219.42c0-2.61,0-5.22,0-7.83,0-1-.21-2.39,1.21-2.19,3.65.53,7.74-2.62,11,1.25.92,1.1,1.45.09,2.07-.42a6.79,6.79,0,0,1,7.69-.8c2.64,1.27,3.48,3.66,3.42,6.5-.08,3.6-.07,7.21,0,10.81,0,1.45-.26,2.3-1.95,2.45-2.34.2-1.52-1.46-1.55-2.48-.1-3.35,0-6.71-.1-10.06,0-2.33-.76-4.33-3.5-4.36s-3.65,2.06-3.81,4.25c-.23,3.34-.16,6.71-.07,10.06.05,1.62-.23,2.6-2.12,2.6-2.31,0-1.35-1.69-1.38-2.67-.13-3.1,0-6.21-.06-9.32,0-2.35-.37-4.8-3.35-4.88s-3.87,2.16-3.86,4.82c0,3.23-.11,6.47.05,9.69.09,2-.91,2.28-2.46,2.37-2.23.13-1.11-1.56-1.16-2.34C297.19,224.4,297.3,221.9,297.3,219.42Z"/><path class="cls-2" d="M689.9,219.42c0-2.61.06-5.23,0-7.84,0-1.27.21-2.51,1.63-2.23,3.6.71,7.7-2.62,10.89,1.35,1,1.18,1.47-.11,2.05-.55a6.83,6.83,0,0,1,7.7-.64c2.49,1.26,3.32,3.49,3.26,6.21-.08,3.6-.07,7.21,0,10.81,0,1.53-.06,2.59-2,2.69-2.27.12-1.57-1.43-1.59-2.49-.07-3.36,0-6.72,0-10.07,0-2.38-.74-4.36-3.46-4.36s-3.61,2-3.69,4.29c-.12,3.36-.14,6.72,0,10.07.06,1.74-.5,2.47-2.27,2.53-2.18.08-1.2-1.53-1.23-2.35-.13-3.35,0-6.71-.1-10.07-.1-2.17-.62-4.43-3.44-4.46s-3.84,2-3.92,4.47c-.11,3.35-.17,6.71,0,10.06.09,1.95-.91,2.32-2.45,2.4-2.18.11-1.12-1.56-1.17-2.36C689.8,224.4,689.9,221.91,689.9,219.42Z"/><path class="cls-2" d="M724.51,227.1c0,3-.15,5.35,0,7.68.17,1.94-1.2,2-2.32,2.13-1.7.22-1.21-1.23-1.22-2.07,0-7.72,0-15.44-.07-23.16,0-2.12,1.87-3.24,2.55-2.53,2.36,2.46,4-.06,5.82-.36a10,10,0,0,1,10.59,5.35,11.11,11.11,0,0,1-2.29,13c-3.32,3.11-7.06,3.46-11.3,1C725.9,228,725.5,227.7,724.51,227.1ZM731.16,212c-3.54-.09-6.36,3.1-6.39,7.2s2.85,7.23,6.43,7.2c3.34,0,6.18-3.2,6.26-7S734.62,212.06,731.16,212Z"/><path class="cls-2" d="M499.4,231a17.44,17.44,0,0,0,2.29,1.77c2.26,1.25,4.51,1.44,6.45-.64a3.73,3.73,0,0,0,.23-5.38,4.41,4.41,0,0,0-6.32-1c-1.4.89-2.31,1.29-3.3-.31-.27-.43-.74-1-.25-1.27,3.34-1.69.35-2.63-.44-3.75a7.44,7.44,0,0,1,5.5-11.65c2.81-.21,5.64.19,9.35-1-2,2.52-1.32,4.13-.68,6,1.31,3.79-.14,6.8-3.73,8.74,4.77,3.31,5.77,7,3.11,11-2.43,3.69-7.31,4.57-11.63,2.28C497.38,234.47,496.55,233.09,499.4,231Zm5.23-10.76c2.76-.16,4.68-1.5,4.62-4.28s-1.9-4.25-4.69-4.16c-2.6.08-4.33,1.63-4.41,4.12C500.06,218.68,501.85,220.16,504.63,220.25Z"/><path class="cls-2" d="M61.29,208.77a5.85,5.85,0,0,0,0,4.84c1.64,3.69.55,5.87-3.57,9.06,4.73,3,5.79,7.15,2.88,11.15s-8.56,4.4-12.65,1.26c-1.23-.94-1.57-1.65-.56-3s1.73-.74,2.66.07a5.76,5.76,0,0,0,2.24,1.27c2.23.59,4.23.15,5.55-1.93a3.89,3.89,0,0,0-.29-4.84c-1.42-1.78-3.28-1.89-5.41-1.43-1.24.26-2.05,2.62-3.79.74-1.59-1.71.1-2.16.85-3.19.5-.69-.74-1-1.2-1.48-2.38-2.3-2.58-5.11-1.52-7.92a6.85,6.85,0,0,1,6.29-4.58C55.53,208.64,58.35,208.77,61.29,208.77Zm-7.7,3c-2.36.37-4.32,1.56-4.26,4.41s2,4.17,4.68,4.08c2.54-.09,4.29-1.44,4.33-4.09C58.37,213.28,56.55,212,53.59,211.73Z"/><path class="cls-2" d="M139.31,229.79a10.58,10.58,0,0,1-5.39-19.8,10.35,10.35,0,0,1,12.38,1.57c1.55,1.62,2.52,2.87-.55,4.2-3.74,1.62-7.16,4-10.84,5.73-2.2,1.06-1.65,1.9-.25,3.08,2.72,2.32,5.62,2.16,8.71.85.66-.28,1.77-1.62,2.15.35.2,1,.86,2.14-.82,2.72A15.94,15.94,0,0,1,139.31,229.79Zm-7.24-10.38,10.81-6C137.49,210.07,132.64,212.82,132.07,219.41Z"/><path class="cls-2" d="M197.59,208.72a9.55,9.55,0,0,1,4,.67c2.11,1,4.32,2.38,4.55,4.56.17,1.62-2.51,2-3.93,2.79-2.89,1.71-5.84,3.32-8.88,4.74-2.26,1-1.57,2-.23,3.1,2.59,2.21,5.38,2.15,8.4,1,.62-.23,1.59-1.88,2.31,0,.45,1.16.84,2.19-.83,3a11.47,11.47,0,0,1-12-1.11,10.57,10.57,0,0,1-3.4-11.75A10.23,10.23,0,0,1,197.59,208.72Zm-7.17,10.76,11.25-6.26C195.48,210.35,191.13,212.88,190.42,219.48Z"/><path class="cls-2" d="M525.07,219c.06-6,4.67-10.37,10.82-10.27a10.31,10.31,0,0,1,10.29,10.49,10.58,10.58,0,0,1-10.69,10.57A10.44,10.44,0,0,1,525.07,219Zm3.64.34a6.84,6.84,0,0,0,7,7.06,7.21,7.21,0,0,0-.3-14.41A6.92,6.92,0,0,0,528.71,219.33Z"/><path class="cls-2" d="M251.06,208.72a10.46,10.46,0,0,1,10.66,10.55,10.62,10.62,0,0,1-21.24,0A10.39,10.39,0,0,1,251.06,208.72Zm-6.95,10.37a7,7,0,0,0,6.88,7.3,7.3,7.3,0,0,0,7.21-7.11,7.39,7.39,0,0,0-7-7.3A7,7,0,0,0,244.11,219.09Z"/><path class="cls-2" d="M639.69,222.52c3,4,5.24,4.64,9.79,3.1.79-.27,1.84-1.82,2.65.15.7,1.69,0,2.43-1.56,3-4.54,1.84-9.27,1-12.44-2.28a10.65,10.65,0,0,1-1.87-12.1,10.41,10.41,0,0,1,10.84-5.67,10.06,10.06,0,0,1,3.21.9c1.85.87,3.83,2.3,4,4.13s-2.42,2-3.82,2.85C647,218.7,643.32,220.57,639.69,222.52Zm10-9.23c-3-2.14-5.48-1.84-7.87-.25-2.06,1.37-3.6,3.13-2.93,6.23Z"/><path class="cls-2" d="M447.76,208.72a10.42,10.42,0,0,1,10.74,10.44,10.61,10.61,0,0,1-21.21.27A10.43,10.43,0,0,1,447.76,208.72Zm7.16,10.53a7.14,7.14,0,0,0-7-7.27,7.21,7.21,0,0,0-7.11,7.15,7.13,7.13,0,0,0,7,7.26A7,7,0,0,0,454.92,219.25Z"/><path class="cls-2" d="M617.57,224.59c1.91,3.7-.69,4.18-3,4.81a10.6,10.6,0,0,1-12.13-5.05A10.56,10.56,0,0,1,617,210.08c4.19,2.63,4.19,4,0,6.32-3,1.66-6,3.45-9.2,4.9-2.67,1.22-1.88,2.33-.21,3.58C610.88,227.33,614.14,226.44,617.57,224.59Zm-12.85-5.25c3.12-1.71,6.14-3.35,9.14-5,.5-.29,1.37-.5,1.1-1.25a2.38,2.38,0,0,0-1.37-1C609.4,210.49,604.81,214.16,604.72,219.34Z"/><path class="cls-2" d="M806.75,208.72a7.52,7.52,0,0,1,4.46,1C813,210.73,815,212,815,214c0,1.64-2.34,1.86-3.67,2.63-3,1.73-6.08,3.36-9.18,4.91-1.83.92-1.66,1.83-.29,3,2.69,2.27,5.57,2.31,8.71,1,.58-.25,1.67-1.88,2.22.13.33,1.2.57,2.21-1.07,3a11.3,11.3,0,0,1-12.2-1.5,10.78,10.78,0,0,1-3-11.54A10.47,10.47,0,0,1,806.75,208.72Zm-7,10.48,8.16-4.43a4.44,4.44,0,0,0,.63-.39c.46-.36,1.28-.39,1.25-1.19s-.78-.9-1.29-1.1C804.23,210.37,799.21,214.41,799.74,219.2Z"/><path class="cls-2" d="M81.83,224.73c1.42,2.78.18,3.76-2.31,4.48-4.55,1.32-8.42.39-11.55-3a10.26,10.26,0,0,1-1.47-11.79c2.11-4.08,6-6.06,10.83-5.65a8.78,8.78,0,0,1,4.46,1.73c3.53,2.54,3.46,3.8-.24,5.78-3.28,1.76-6.51,3.63-9.87,5.23-2.23,1.06-1.61,2-.25,3.15C74.84,227.59,78.35,226.2,81.83,224.73Zm-12.91-5.37c3.25-1.79,6.16-3.4,9.06-5,.51-.28,1.33-.38,1.22-1.18s-1-1-1.64-1.19C73.33,210.74,69.12,214.16,68.92,219.36Z"/><path class="cls-2" d="M842.41,222.51c2.89,4.09,5.12,4.67,10.07,3,.63-.21,1.77-1.81,2.23.19.22,1,.68,2-.77,2.85-4.21,2.51-10.71,1.32-13.84-2.77A10.65,10.65,0,0,1,841.66,211a10.41,10.41,0,0,1,13.9.53c1.87,1.89,2,3-.7,4.26C850.62,217.86,846.56,220.26,842.41,222.51Zm-.9-3.22c3-1.65,5.92-3.23,8.82-4.86.59-.33,1.7-.51,1.34-1.43-.2-.52-1.12-.89-1.79-1.06C845.56,210.81,841.38,214.42,841.51,219.29Z"/><path class="cls-2" d="M344.14,218.78c0,2.74,0,5.48,0,8.21,0,1.35-.7,2.73-1.76,2-2.55-1.66-4.28.58-6.39.76a6.7,6.7,0,0,1-7.55-6.46c-.21-4,0-8-.12-11.94-.06-1.76.93-2.12,2.23-2.29,2.12-.27,1.26,1.43,1.29,2.27.1,3.35,0,6.71.05,10.07,0,2.31.78,4.31,3.36,4.63a4.15,4.15,0,0,0,5-3.87,80.3,80.3,0,0,0,.3-10.41c0-1.7.44-2.58,2.16-2.69,2.37-.15,1.29,1.66,1.35,2.59C344.25,214.05,344.15,216.42,344.14,218.78Z"/><path class="cls-2" d="M87.87,219.39c0-2.61-.06-5.22,0-7.83.08-2.4,1.29-3.11,3.31-1.62,1.21.88,1.45-.14,2-.41,6-2.74,11.29.42,11.49,6.94.1,3.36,0,6.72,0,10.08,0,1.53-.06,2.55-2.06,2.66-2.33.12-1.54-1.47-1.57-2.49-.1-3.24,0-6.47-.12-9.7-.08-2.45-1-4.5-3.77-4.73s-4.73,1.14-5.43,4c-.84,3.45-.37,6.94-.37,10.41,0,1.74-.51,2.49-2.25,2.53-2,0-1.25-1.48-1.29-2.37C87.8,224.37,87.87,221.88,87.87,219.39Z"/><path class="cls-2" d="M349.74,219.14c0-2.61.06-5.22,0-7.82,0-1.16.42-2.4,1.46-2,3,1.25,5.5-.89,8.32-.67,4.2.32,6.72,2.58,6.84,6.76.11,3.85-.06,7.7.07,11.54,0,1.68-.67,2.11-2.13,2.24-2.08.18-1.38-1.34-1.4-2.25-.08-3.23,0-6.46-.06-9.68-.07-2.74-1-5-4.24-5s-4.87,1.87-5.08,4.83a86.64,86.64,0,0,0-.08,9.67c.07,1.84-.74,2.34-2.37,2.45-2.19.16-1.22-1.45-1.26-2.27C349.66,224.35,349.74,221.74,349.74,219.14Z"/><path class="cls-2" d="M588,220.56c0,2.24,0,4.47,0,6.71,0,.9-.06,2.15-1.18,1.76-2.26-.79-4.08.59-6.12.72-3.08.21-5.2-1.4-6.61-4a7.07,7.07,0,0,1,.73-8,6.68,6.68,0,0,1,6.89-2.73c.95.17,2.43,1.83,2.78-.38.28-1.75-1.21-2.33-2.78-2.87-1.16-.4-3.61,1.65-3.46-1.32s2.65-1.63,4.1-1.63c3.88,0,5.54,1.84,5.64,5.81C588.06,216.58,588,218.57,588,220.56Zm-3.39,1.67c-.32-2.3-1.49-3.95-4-3.89a3.66,3.66,0,0,0-3.87,4,3.7,3.7,0,0,0,4,4C583.19,226.32,584.41,224.7,584.63,222.23Z"/><path class="cls-2" d="M410.07,215.92c.12-3.53-1.77-4.23-4.46-4.16-.76,0-2.15.81-2-1.08.1-1.33.66-1.85,2.07-2,5.36-.55,7.75,1.45,7.78,6.76,0,3.72,0,7.44,0,11.16,0,.8.42,1.75-.53,2.37s-9.92.35-11-.44a7.69,7.69,0,0,1-2.41-9.6C401.29,215.23,404.49,214.25,410.07,215.92Zm-3.94,10.48c2.46-.32,3.91-1.67,3.86-4.13s-1.49-4-4-3.92a3.64,3.64,0,0,0-3.85,4C402.21,224.85,403.73,226.13,406.13,226.4Z"/><path class="cls-1" d="M688.78,68.31c-.62-.57-1.37-1.2-2-1.9-2.21-2.32-5.9-4.51-6.17-7.06-.29-2.75,4.16-4.41,6.08-7s3.41-2.09,5.09.13c.59.78,1.5,1.33,2.07,2.13,1.32,1.8,5,3.33,3.86,5.15-2,3.26-5.48,5.63-8.34,8.37C689.26,68.26,689.1,68.24,688.78,68.31Z"/><path class="cls-2" d="M517.19,210c0-5.46,0-10.92,0-16.38,0-1.48,0-2.64,2-2.77,2.38-.15,1.48,1.56,1.48,2.52.06,11,0,22.09.05,33.13,0,1.42.16,2.69-1.93,2.74-2.58.06-1.53-1.81-1.55-2.86C517.14,220.87,517.19,215.41,517.19,210Z"/><path class="cls-2" d="M462.88,219.2c0-2.61.13-5.22,0-7.82-.12-1.78,1.45-2.71,2.09-2.17,2.16,1.8,3.67-.16,5.43-.44,5.62-.92,9.1,2,9.14,7.74,0,3.48-.07,7,0,10.43.06,1.65-.63,2.23-2.14,2.24-1.77,0-1.08-1.33-1.12-2.12-.15-3.35-.08-6.71-.28-10.05-.17-2.74-1.3-4.91-4.54-4.73s-4.66,2.17-4.84,5.11-.11,5.71-.08,8.57c0,1.67.21,3.32-2.28,3.26s-1.22-1.94-1.31-2.94C462.75,223.93,462.88,221.56,462.88,219.2Z"/><path class="cls-2" d="M835.62,180.28c-2.65.87-3.67-.2-3.78-3-.16-3.92-3-5.57-6.76-4.31-1.5.5-.79,1.6-.89,2.45a17.84,17.84,0,0,0,0,3.35c.1,1.28-.39,1.72-1.69,1.71S821,180.05,821,179q0-7.64,0-15.27c0-1.08.38-1.6,1.51-1.57,2.86.1,5.74,0,8.56.28,3.32.39,5.42,3.15,4,6.1C833.06,172.75,836.13,176.15,835.62,180.28ZM828.07,170c1.23-.19,4.11.7,4-2.58-.12-3.09-2.89-2.34-4.89-2.57s-3,.26-3.09,2.74C824,170.45,825.58,170.2,828.07,170Z"/><path class="cls-2" d="M781.22,161.83c2.5.21,5.09.89,6.08,4,.23.71.84,1.82-.45,2.18-.9.26-2.12.49-2.42-.91a2.84,2.84,0,0,0-2.93-2.34c-1.63-.14-3.48-.23-4,1.8s1.46,2.21,2.77,2.67,2.89.75,4.28,1.28c4.14,1.6,4.86,5.94,1.49,8.83s-10.38,1.84-11.95-2.07c-.39-1-1-2.38.21-3s2.16-.07,2.62,1.57c.55,2,2.44,2.24,4.26,2.24s3.39-.58,3.68-2.44-1.51-2-2.72-2.52c-1-.4-2.16-.55-3.24-.87-2.82-.83-5.14-2.13-4.65-5.65C774.67,163.68,777.34,161.78,781.22,161.83Z"/><path class="cls-2" d="M231.71,208.72a11.78,11.78,0,0,1,4.54.87c1.65.61,1.55,1.81,1.12,3-.61,1.71-1.59.37-2.36.11-3.27-1.15-6.41-1.28-8.95,1.48a6.85,6.85,0,0,0-1.5,7.57c1.56,4.06,5.52,5.53,10.22,3.93.73-.24,1.75-2.18,2.58-.1.57,1.43.3,2.5-1.36,3.22a11.24,11.24,0,0,1-12.16-1.94,10.55,10.55,0,0,1-2.6-11.62C222.92,211.05,226.7,208.65,231.71,208.72Z"/><path class="cls-2" d="M395.74,224.73c1.49,2.78.12,3.76-2.29,4.46-4.82,1.4-9.57,0-12.25-3.88a10.55,10.55,0,0,1,.41-12.79,11.34,11.34,0,0,1,12.89-3.1c1.59.63,2.24,1.38,1.7,3s-1.49.59-2.32.34c-4.71-1.41-7.65-.75-9.69,2.17a7.17,7.17,0,0,0,.33,9c2.28,2.71,5.38,3.12,9.9,1.33Z"/><path class="cls-2" d="M119.28,208.72a13.23,13.23,0,0,1,4.4.61c1.46.54,2.49,1.15,1.95,2.92-.71,2.31-2,.59-2.92.32-5.43-1.57-9.88.78-10.45,5.63-.71,6,4.44,9.57,10.68,7.44.77-.27,1.9-2,2.61.06.43,1.21.41,2.27-1.15,3a11.63,11.63,0,0,1-12.26-1.57,10.74,10.74,0,0,1-2.92-11.56A10.34,10.34,0,0,1,119.28,208.72Z"/><path class="cls-2" d="M593.37,210c0-5.46,0-10.92,0-16.37,0-1.42-.14-2.68,1.94-2.77,2.68-.12,1.53,1.82,1.53,2.82.09,10.78.06,21.58,0,32.36,0,1.42.47,3.11-1.93,3.16-2.92.05-1.47-2.15-1.5-3.21C593.28,220.64,593.37,215.3,593.37,210Z"/><path class="cls-2" d="M812.3,180.11c-2.36.84-3.81.39-4.16-2.13-.32-2.23-1.6-2.83-3.86-2.84s-3.78.47-4.19,2.91a6.05,6.05,0,0,1-.68,1.72c-.62,1.22-1.83.8-2.64.59-1-.27-.38-1.2-.16-1.82,1.78-4.89,3.61-9.76,5.34-14.66a2.24,2.24,0,0,1,2.39-1.79c1.46,0,2,.74,2.34,1.89.26.83.56,1.64.85,2.46Zm-6.22-7.94c-.66-1.78-1.2-3.26-1.93-5.21l-1.95,5.21Z"/><path class="cls-2" d="M657.7,219c-.76-2.08.22-4.54-.94-7.3-.84-2,1-5.67,1.2-8.69,0-.32,1.52-.71,2.35-.74,1.4-.05.9,1.16,1,1.92.31,2.2-1.43,5.66,3.31,5.08.88-.1.93.95.93,1.71,0,1.13-.62,1.62-1.65,1.44-2.72-.5-2.67,1.18-2.61,3.06.08,2.47.07,5,0,7.43,0,1.67.23,3,2.27,3.09.68,0,1.66-.19,1.32,1.05-.24.89-.23,1.88-1.66,2.06a4.72,4.72,0,0,1-5.52-4.17C657.58,223.13,657.7,221.26,657.7,219Z"/><path class="cls-2" d="M418.81,219.12c-.66-2.18.21-4.67-.94-7.43-.87-2.09,1.19-5.48,1.16-8.46,0-.3,1.44-.78,2.25-.89,1.15-.17,1,.84,1,1.53.14,2.57-1.22,6.06,3.72,5.51.91-.11.76,1.07.77,1.79,0,1.25-.88,1.43-1.78,1.28-2.53-.44-2.87.87-2.74,3,.16,2.48,0,5,.05,7.46,0,1.6.26,3.07,2.3,3.12,1,0,1.72.09,1.44,1.4-.2.92-.5,1.54-1.58,1.74a4.78,4.78,0,0,1-5.63-4.1C418.67,223.18,418.81,221.3,418.81,219.12Z"/><path class="cls-2" d="M820.56,209.14c1.69,3.57,3.52-.06,5.39-.13.5,0,1.25-.14,1.26.38,0,.94-.09,2.53-.58,2.72-6.46,2.53-4.75,8.2-5.2,13a13.84,13.84,0,0,0,0,2.23c.09,1.3-.62,1.66-1.78,1.82-1.62.22-1.5-.8-1.5-1.82,0-5.33.08-10.67,0-16C818.06,209.61,819.05,209.32,820.56,209.14Z"/><path class="cls-2" d="M433.05,219.11c0,2.72-.09,5.45,0,8.17.08,1.62-.85,1.73-2,1.91-1.62.24-1.51-.8-1.51-1.82,0-5.32.07-10.64,0-16,0-1.73.89-2.12,2.19-2.31,2.1-.3,1.3,1.36,1.33,2.21C433.12,213.91,433.05,216.51,433.05,219.11Z"/><path class="cls-2" d="M757,219.28c0-2.6.15-5.2,0-7.79-.15-2,1.15-2.3,2.49-2.4,1.78-.13,1,1.38,1,2.15.08,5.19,0,10.39.07,15.59,0,1.47-.27,2.25-2,2.37-2.3.15-1.53-1.46-1.57-2.49C756.89,224.24,757,221.76,757,219.28Z"/><path class="cls-2" d="M375.61,219c0,2.73-.09,5.46,0,8.18.08,1.84-1.06,1.93-2.35,2-1.85.15-1.15-1.28-1.16-2.05-.07-5.2.06-10.4-.09-15.6-.06-1.94.94-2.39,2.41-2.44,2.07-.06,1.06,1.62,1.11,2.45C375.71,214,375.61,216.5,375.61,219Z"/><path class="cls-2" d="M754.24,208.86c.06,1.68.21,3-1.45,3.7-3.47,1.37-4.14,4.37-4.29,7.58-.1,2.35-.09,4.72,0,7.08.06,1.55-.79,1.86-2,2-1.81.13-1.21-1.23-1.22-2,0-5.22,0-10.44,0-15.66,0-1,0-2,1.34-2.24,1.08-.24,1.77-.49,2,1.09.21,1.36,1.13.25,1.57,0A9.15,9.15,0,0,1,754.24,208.86Z"/><path class="cls-2" d="M844.87,171.38c0-2.12-.07-4.24,0-6.35.05-1.17-.75-3,1.67-2.89,2.18.06,1.37,1.7,1.4,2.74.09,3.23.17,6.48,0,9.71-.12,2.18.33,3.28,2.8,2.91a37.48,37.48,0,0,1,4.11-.05c1.09,0,1.53.36,1.53,1.5s-.4,1.61-1.51,1.51a6.26,6.26,0,0,0-.75,0C844.87,180.92,844.87,180.92,844.87,171.38Z"/><path class="cls-2" d="M833.65,209.13c0,6-.06,12,0,18.07,0,1.88-1.17,1.83-2.41,2-1.87.27-1.22-1.14-1.23-1.92,0-4.95.14-9.91-.09-14.85C829.82,209.75,830.88,208.91,833.65,209.13Z"/><path class="cls-2" d="M680.91,219.23c0-2.48.19-5,0-7.42-.22-2.12,1-2.63,2.52-2.72,2-.12,1.1,1.58,1.12,2.41.1,4.95,0,9.91.08,14.86,0,1.73-.23,2.88-2.31,2.84-2.56,0-1.21-1.93-1.29-2.92C680.78,223.94,680.91,221.58,680.91,219.23Z"/><path class="cls-2" d="M834.57,201.94c-1.15,1-1.74,2.61-3,2.27-1.05-.29-2.7-1.26-2.07-2.8.36-.88,1.24-2.44,2.63-1.9C833.13,199.89,833.77,201.09,834.57,201.94Z"/><path class="cls-2" d="M685.38,201.53a4.11,4.11,0,0,1-2.44,2.69c-1.31.34-2.33-1.08-2.57-2.06-.35-1.48,1.25-2.57,2.3-2.72C683.46,199.34,684.47,200.78,685.38,201.53Z"/><path class="cls-2" d="M431.16,204.51c-1.05-.71-2.52-1.58-2.39-2.61s1.33-2.62,2.73-2.44c1,.13,2.39,1.26,2.19,2.54S432.35,204,431.16,204.51Z"/><path class="cls-2" d="M761.36,201.75c-.54,1.14-1.35,2.38-2.46,2.47a2.66,2.66,0,0,1-2.59-2.48,2.78,2.78,0,0,1,2.42-2.33C759.94,199.4,760.61,200.78,761.36,201.75Z"/><path class="cls-2" d="M376.41,201.94c-.81.95-1.42,2.38-2.68,2.37a2.64,2.64,0,0,1-2.41-2.39,2.82,2.82,0,0,1,2.7-2.51C375,199.5,376,200.74,376.41,201.94Z"/><path class="cls-3" d="M598.41,99.5,557.62,122c-3.08-8.12,3.48-19.81,12.23-24.89C580,91.2,591.72,92,598.41,99.5Z"/><path class="cls-3" d="M560.16,226.39a7.21,7.21,0,0,1-.31-14.41,7.05,7.05,0,0,1,7.18,7A7.17,7.17,0,0,1,560.16,226.39Z"/><path class="cls-3" d="M731.16,212c3.46.08,6.39,3.51,6.3,7.38s-2.92,7-6.26,7c-3.58,0-6.46-3.19-6.43-7.2S727.62,211.89,731.16,212Z"/><path class="cls-3" d="M504.63,220.25c-2.78-.09-4.57-1.57-4.48-4.32.08-2.49,1.81-4,4.41-4.12,2.79-.09,4.62,1.44,4.69,4.16S507.39,220.09,504.63,220.25Z"/><path class="cls-3" d="M528.71,219.33a6.92,6.92,0,0,1,6.75-7.35,7.21,7.21,0,0,1,.3,14.41A6.84,6.84,0,0,1,528.71,219.33Z"/><path class="cls-3" d="M649.73,213.29l-10.8,6c-.67-3.1.87-4.86,2.93-6.23C644.25,211.45,646.75,211.15,649.73,213.29Z"/><path class="cls-3" d="M604.72,219.34c.09-5.18,4.68-8.85,8.87-7.29a2.38,2.38,0,0,1,1.37,1c.27.75-.6,1-1.1,1.25C610.86,216,607.84,217.63,604.72,219.34Z"/><path class="cls-3" d="M584.63,222.23c-.22,2.47-1.44,4.09-3.93,4.1a3.7,3.7,0,0,1-4-4,3.66,3.66,0,0,1,3.87-4C583.14,218.28,584.31,219.93,584.63,222.23Z"/></svg>